<svg height="512pt" viewBox="0 0 512 512" width="512pt" xmlns="http://www.w3.org/2000/svg"><path d="m488.910156 104.5h-32.410156v-79c0-14.0625-11.4375-25.5-25.5-25.5h-108c-14.0625 0-25.5 11.4375-25.5 25.5v79h-47v-64c0-14.0625-11.4375-25.5-25.5-25.5h-146c-14.0625 0-25.5 11.4375-25.5 25.5v64h-30.410156c-12.730469 0-23.089844 10.359375-23.089844 23.089844v32.160156c0 4.144531 3.359375 7.5 7.5 7.5s7.5-3.355469 7.5-7.5v-32.160156c0-4.460938 3.628906-8.089844 8.089844-8.089844h30.410156v15h-16c-4.140625 0-7.5 3.355469-7.5 7.5v260c0 4.144531 3.359375 7.5 7.5 7.5h378.5c4.140625 0 7.5-3.355469 7.5-7.5s-3.359375-7.5-7.5-7.5h-371v-245h8.585938c1.023437 13.128906 12.027343 23.5 25.414062 23.5h60.53125v156.710938c0 4.140624 3.359375 7.5 7.5 7.5h23.46875c4.140625 0 7.5-3.359376 7.5-7.5 0-4.144532-3.359375-7.5-7.5-7.5h-15.96875v-149.210938h70.46875c13.386719 0 24.390625-10.371094 25.414062-23.5h52.75c4.679688 5.789062 11.828126 9.5 19.835938 9.5h25.28125c3.46875 9.515625 11.941406 16.640625 22.21875 18.1875v53.644531h-24.5c-4.140625 0-7.5 3.359375-7.5 7.5 0 4.144531 3.359375 7.5 7.5 7.5h32c4.140625 0 7.5-3.355469 7.5-7.5v-61.144531c10.277344-1.546875 18.75-8.671875 22.21875-18.1875h23.28125c8.003906 0 15.15625-3.710938 19.835938-9.5h16.164062v245h-18.75c-4.140625 0-7.5 3.355469-7.5 7.5s3.359375 7.5 7.5 7.5h26.25c4.140625 0 7.5-3.355469 7.5-7.5v-260c0-4.144531-3.359375-7.5-7.5-7.5h-18.023438c.011719-.332031.023438-.664062.023438-1v-14h32.410156c4.460938 0 8.089844 3.628906 8.089844 8.089844v288.820312c0 4.460938-3.628906 8.089844-8.089844 8.089844h-465.820312c-4.460938 0-8.089844-3.628906-8.089844-8.089844v-224.660156c0-4.144531-3.359375-7.5-7.5-7.5s-7.5 3.355469-7.5 7.5v224.660156c0 12.730469 10.359375 23.089844 23.089844 23.089844h180.410156v27.5h-76.5c-12.40625 0-22.5 10.09375-22.5 22.5s10.09375 22.5 22.5 22.5h258c12.40625 0 22.5-10.09375 22.5-22.5s-10.09375-22.5-22.5-22.5h-76.5v-27.5h180.410156c12.730469 0 23.089844-10.359375 23.089844-23.089844v-288.820312c0-12.730469-10.359375-23.089844-23.089844-23.089844zm-253.410156 43c0 5.789062-4.710938 10.5-10.5 10.5h-146c-5.789062 0-10.5-4.710938-10.5-10.5v-107c0-5.789062 4.710938-10.5 10.5-10.5h146c5.789062 0 10.5 4.710938 10.5 10.5zm15-13v-15h47v14c0 .335938.011719.667969.023438 1zm130.804688 28h-6.609376c-6.753906 0-12.328124-5.136719-13.03125-11.707031-.003906-.039063-.007812-.082031-.011718-.125-.042969-.421875-.066406-.847657-.066406-1.277344v-1.867187h32.828124v1.867187c0 .429687-.023437.855469-.066406 1.277344-.003906.042969-.007812.085937-.011718.125-.703126 6.570312-6.277344 11.707031-13.03125 11.707031zm49.695312-18.5h-21.585938v-.492188c0-3.113281-1.308593-5.921874-3.398437-7.925781.90625-2.910156 2.675781-5.46875 5.132813-7.226562 15.246093-10.914063 24.351562-28.710938 24.351562-47.601563 0-10.796875-2.9375-21.34375-8.5-30.496094-2.152344-3.542968-6.765625-4.667968-10.304688-2.519531-3.539062 2.152344-4.667968 6.765625-2.515624 10.304688 4.132812 6.808593 6.320312 14.660156 6.320312 22.710937 0 14.0625-6.761719 27.300782-18.085938 35.402344-5.535156 3.964844-9.441406 9.796875-11.140624 16.367188h-26.546876c-1.699218-6.570313-5.605468-12.402344-11.144531-16.367188-11.320312-8.101562-18.082031-21.339844-18.082031-35.402344 0-23.851562 19.066406-43.253906 42.5-43.253906 5.457031 0 10.769531 1.035156 15.785156 3.078125 3.835938 1.566406 8.210938-.277344 9.773438-4.113281 1.5625-3.835938-.277344-8.214844-4.113282-9.777344-6.824218-2.777344-14.039062-4.1875-21.445312-4.1875-31.707031 0-57.5 26.132812-57.5 58.253906 0 18.890625 9.105469 36.6875 24.351562 47.601563 2.457032 1.757812 4.226563 4.316406 5.132813 7.230469-2.089844 2-3.398437 4.808593-3.398437 7.925781v.488281h-23.585938c-5.789062 0-10.5-4.710938-10.5-10.5v-108c0-5.789062 4.710938-10.5 10.5-10.5h108c5.789062 0 10.5 4.710938 10.5 10.5v108c0 5.789062-4.710938 10.5-10.5 10.5zm-38.5 345.5c0 4.136719-3.363281 7.5-7.5 7.5h-258c-4.136719 0-7.5-3.363281-7.5-7.5s3.363281-7.5 7.5-7.5h258c4.136719 0 7.5 3.363281 7.5 7.5zm-99-22.5h-75v-27.5h75zm0 0"/><path d="m332.492188 296.414062c9.566406-2.046874 16.507812-10.632812 16.507812-20.414062s-6.941406-18.367188-16.507812-20.414062c-3.542969-.761719-6.066407-1.277344-7.886719-1.625l-4.507813-10.886719c1.039063-1.535157 2.457032-3.683594 4.425782-6.726563 5.316406-8.210937 4.15625-19.191406-2.761719-26.109375-6.917969-6.914062-17.898438-8.078125-26.109375-2.761719-3.042969 1.96875-5.1875 3.386719-6.722656 4.425782l-10.886719-4.507813c-.351563-1.820312-.867188-4.339843-1.625-7.886719-2.046875-9.566406-10.636719-16.507812-20.417969-16.507812s-18.371094 6.941406-20.417969 16.507812c-.757812 3.542969-1.273437 6.0625-1.625 7.886719l-10.886719 4.507813c-1.535156-1.039063-3.679687-2.457032-6.722656-4.425782-8.210937-5.316406-19.191406-4.152343-26.109375 2.761719-6.917969 6.917969-8.078125 17.898438-2.761719 26.109375 1.96875 3.042969 3.386719 5.191406 4.425782 6.726563l-4.507813 10.886719c-1.820312.351562-4.34375.863281-7.886719 1.625-9.566406 2.046874-16.507812 10.632812-16.507812 20.414062s6.941406 18.367188 16.507812 20.414062c3.546876.761719 6.066407 1.277344 7.886719 1.628907l4.507813 10.882812c-1.039063 1.535157-2.457032 3.683594-4.425782 6.726563-5.316406 8.210937-4.15625 19.191406 2.761719 26.109375 6.917969 6.914062 17.898438 8.078125 26.109375 2.761719 3.042969-1.96875 5.1875-3.386719 6.722656-4.425782l10.886719 4.511719c.351563 1.816406.867188 4.339844 1.625 7.882813 2.046875 9.566406 10.636719 16.507812 20.417969 16.507812s18.371094-6.941406 20.417969-16.507812c.757812-3.542969 1.273437-6.0625 1.625-7.886719l10.886719-4.507813c1.535156 1.039063 3.679687 2.457032 6.722656 4.425782 8.210937 5.316406 19.191406 4.152343 26.109375-2.761719 6.917969-6.917969 8.078125-17.898438 2.761719-26.109375-1.96875-3.042969-3.386719-5.191406-4.425782-6.726563l4.507813-10.886719c1.820312-.347656 4.339843-.863281 7.886719-1.625zm-139.847657-12.628906h.109375c-.097656 0-.171875 0-.109375 0zm126.496094.003906c.078125-.003906.148437-.003906.207031-.003906h.058594c-.089844 0-.179688 0-.265625.003906zm-.097656.003907c-2.953125.136719-5.566407 1.953125-6.730469 4.734375l-7.640625 18.445312c-1.128906 2.738282-.585937 5.851563 1.398437 8.070313.253907.324219 1.4375 1.925781 5.863282 8.761719 1.496094 2.308593 1.167968 5.402343-.777344 7.347656-1.949219 1.949218-5.042969 2.277344-7.351562.78125-6.667969-4.320313-8.355469-5.550782-8.734376-5.84375-2.183593-1.996094-5.3125-2.558594-8.109374-1.414063l-18.398438 7.621094c-2.8125 1.148437-4.65625 3.792969-4.769531 6.765625-.066407.507812-.402344 2.621094-2.042969 10.289062-.578125 2.695313-2.996094 4.648438-5.75 4.648438s-5.171875-1.953125-5.75-4.648438c-1.660156-7.761718-1.980469-9.832031-2.042969-10.308593-.136719-2.984375-1.972656-5.601563-4.738281-6.730469l-18.457031-7.648438c-2.792969-1.140624-5.949219-.558593-8.101563 1.441407-.417968.324219-2.164062 1.585937-8.710937 5.828125-2.3125 1.496094-5.40625 1.171875-7.351563-.777344-1.949218-1.949219-2.277344-5.039062-.78125-7.351562 4.324219-6.679688 5.554688-8.359376 5.84375-8.734376 1.996094-2.191406 2.558594-5.335937 1.414063-8.109374l-7.648438-18.460938c-1.148437-2.746094-3.753906-4.558594-6.710937-4.703125-.457032-.058594-2.496094-.375-10.316406-2.046875-2.695313-.578125-4.648438-2.996094-4.648438-5.75s1.953125-5.171875 4.648438-5.746094c7.773437-1.664062 9.835937-1.988281 10.308593-2.046875 2.953125-.136719 5.566407-1.953125 6.730469-4.734375l7.640625-18.445312c1.128906-2.738282.585937-5.851563-1.398437-8.070313-.253907-.324219-1.4375-1.925781-5.863282-8.761719-1.496094-2.308593-1.167968-5.402343.777344-7.347656 1.945312-1.949218 5.039062-2.277344 7.351562-.78125 6.667969 4.320313 8.355469 5.550782 8.734376 5.84375 2.183593 1.996094 5.3125 2.558594 8.109374 1.414063l18.429688-7.636719c2.792969-1.15625 4.625-3.789062 4.738281-6.75.066407-.507812.402344-2.621094 2.042969-10.289062.574219-2.695313 2.992188-4.648438 5.75-4.648438 2.753906 0 5.171875 1.953125 5.746094 4.648438 1.664062 7.769531 1.984375 9.835937 2.046875 10.308593.136719 2.945313 1.9375 5.550781 4.730469 6.730469l18.46875 7.652344c2.796874 1.140625 5.945312.554687 8.097656-1.445313.417968-.320312 2.164062-1.585937 8.710937-5.828125 2.3125-1.496094 5.40625-1.167968 7.351563.78125 1.949218 1.945313 2.277344 5.039063.78125 7.347656-4.324219 6.679688-5.554688 8.359376-5.84375 8.738282-2 2.191406-2.558594 5.335937-1.414063 8.105468l7.628907 18.421876c1.140624 2.769531 3.75 4.601562 6.730468 4.742187.457032.0625 2.5.375 10.316406 2.050781 2.695313.574219 4.648438 2.992188 4.648438 5.746094s-1.957031 5.171875-4.648438 5.746094c-7.773437 1.664062-9.835937 1.988281-10.308593 2.046875zm0 0"/><path d="m256 240.617188c-19.507812 0-35.378906 15.875-35.378906 35.382812s15.871094 35.382812 35.378906 35.382812 35.378906-15.875 35.378906-35.382812-15.871094-35.382812-35.378906-35.382812zm0 55.765624c-11.238281 0-20.378906-9.144531-20.378906-20.382812s9.140625-20.382812 20.378906-20.382812 20.378906 9.144531 20.378906 20.382812-9.140625 20.382812-20.378906 20.382812zm0 0"/><path d="m92 69.199219 58.597656-.003907c4.144532 0 7.5-3.359374 7.5-7.503906 0-4.140625-3.355468-7.496094-7.5-7.496094l-58.597656.003907c-4.140625 0-7.5 3.359375-7.5 7.5 0 4.144531 3.359375 7.5 7.5 7.5zm0 0"/><path d="m92 99.195312 120-.003906c4.140625 0 7.5-3.355468 7.5-7.5 0-4.140625-3.359375-7.5-7.5-7.5l-120 .003906c-4.140625 0-7.5 3.359376-7.5 7.5 0 4.144532 3.359375 7.5 7.5 7.5zm0 0"/><path d="m212 114.191406-119.996094.003906c-4.144531 0-7.5 3.355469-7.5 7.5 0 4.140626 3.355469 7.5 7.5 7.5l119.996094-.003906c4.140625 0 7.5-3.359375 7.5-7.5s-3.359375-7.5-7.5-7.5zm0 0"/></svg>